<svg width="104" height="104" viewBox="0 0 104 104" fill="none" xmlns="http://www.w3.org/2000/svg">
<path d="M0 52C0 9.178 9.178 0 52 0C94.822 0 104 9.178 104 52C104 94.822 94.822 104 52 104C9.178 104 0 94.822 0 52Z" fill="#1877F2"/>
<path d="M92 52C92 29.9086 74.0914 12 52 12C29.9086 12 12 29.9086 12 52C12 71.9652 26.6275 88.5133 45.75 91.5141V63.5625H35.5938V52H45.75V43.1875C45.75 33.1625 51.7217 27.625 60.8586 27.625C65.235 27.625 69.8125 28.4063 69.8125 28.4063V38.25H64.7686C59.7997 38.25 58.25 41.3333 58.25 44.4966V52H69.3438L67.5703 63.5625H58.25V91.5141C77.3727 88.5133 92 71.9652 92 52Z" fill="#1877F2"/>
<path d="M67.5703 63.5625L69.3438 52H58.25V44.4966C58.25 41.3333 59.7995 38.25 64.7686 38.25H69.8125V28.4062C69.8125 28.4062 65.2348 27.625 60.8586 27.625C51.7217 27.625 45.75 33.1625 45.75 43.1875V52H35.5938V63.5625H45.75V91.5141C47.7864 91.8336 49.8737 92 52 92C54.1262 92 56.2134 91.8336 58.25 91.5141V63.5625H67.5703Z" fill="white"/>
</svg>
