<svg width="104" height="104" viewBox="0 0 104 104" fill="none" xmlns="http://www.w3.org/2000/svg">
<path d="M0 52C0 9.178 9.178 0 52 0C94.822 0 104 9.178 104 52C104 94.822 94.822 104 52 104C9.178 104 0 94.822 0 52Z" fill="url(#paint0_linear_2796_9450)"/>
<path d="M52.312 29.92C59.6 29.92 60.464 29.944 63.344 30.08C66.008 30.2 67.456 30.648 68.416 31.024C69.688 31.52 70.6 32.112 71.552 33.064C72.504 34.016 73.096 34.928 73.592 36.2C73.968 37.16 74.408 38.608 74.536 41.272C74.664 44.152 74.696 45.016 74.696 52.304C74.696 59.592 74.672 60.456 74.536 63.336C74.416 66 73.968 67.448 73.592 68.408C73.096 69.68 72.504 70.592 71.552 71.544C70.6 72.496 69.688 73.088 68.416 73.584C67.456 73.96 66.008 74.4 63.344 74.528C60.464 74.656 59.6 74.688 52.312 74.688C45.024 74.688 44.16 74.664 41.28 74.528C38.616 74.408 37.168 73.96 36.208 73.584C34.936 73.088 34.024 72.496 33.072 71.544C32.12 70.592 31.528 69.68 31.032 68.408C30.656 67.448 30.216 66 30.088 63.336C29.96 60.456 29.928 59.592 29.928 52.304C29.928 45.016 29.952 44.152 30.088 41.272C30.208 38.608 30.656 37.16 31.032 36.2C31.528 34.928 32.12 34.016 33.072 33.064C34.024 32.112 34.936 31.52 36.208 31.024C37.168 30.648 38.616 30.208 41.28 30.08C44.16 29.944 45.024 29.92 52.312 29.92ZM52.312 25C44.896 25 43.968 25.032 41.056 25.168C38.152 25.304 36.168 25.76 34.424 26.44C32.632 27.128 31.104 28.064 29.592 29.584C28.072 31.104 27.144 32.624 26.44 34.424C25.768 36.16 25.304 38.144 25.168 41.056C25.032 43.968 25 44.896 25 52.312C25 59.728 25.032 60.656 25.168 63.568C25.304 66.472 25.76 68.456 26.44 70.2C27.136 71.984 28.072 73.512 29.592 75.024C31.112 76.544 32.632 77.472 34.432 78.176C36.168 78.848 38.152 79.312 41.064 79.448C43.976 79.584 44.904 79.616 52.32 79.616C59.736 79.616 60.664 79.584 63.576 79.448C66.48 79.312 68.464 78.856 70.208 78.176C71.992 77.48 73.52 76.544 75.032 75.024C76.552 73.504 77.48 71.984 78.184 70.184C78.856 68.448 79.32 66.464 79.456 63.552C79.592 60.64 79.624 59.712 79.624 52.296C79.624 44.88 79.592 43.952 79.456 41.04C79.32 38.136 78.864 36.152 78.184 34.408C77.488 32.624 76.552 31.096 75.032 29.584C73.512 28.064 71.992 27.136 70.192 26.432C68.456 25.76 66.472 25.296 63.56 25.16C60.656 25.032 59.728 25 52.312 25Z" fill="white"/>
<path d="M52.3131 38.28C44.5691 38.28 38.2891 44.56 38.2891 52.304C38.2891 60.048 44.5691 66.328 52.3131 66.328C60.0571 66.328 66.3371 60.048 66.3371 52.304C66.3371 44.56 60.0571 38.28 52.3131 38.28ZM52.3131 61.408C47.2891 61.408 43.2091 57.336 43.2091 52.304C43.2091 47.272 47.2891 43.2 52.3131 43.2C57.3371 43.2 61.4171 47.272 61.4171 52.304C61.4171 57.336 57.3371 61.408 52.3131 61.408Z" fill="white"/>
<path d="M66.8894 41.008C68.7009 41.008 70.1694 39.5395 70.1694 37.728C70.1694 35.9165 68.7009 34.448 66.8894 34.448C65.0779 34.448 63.6094 35.9165 63.6094 37.728C63.6094 39.5395 65.0779 41.008 66.8894 41.008Z" fill="white"/>
<defs>
<linearGradient id="paint0_linear_2796_9450" x1="15.2304" y1="88.7696" x2="88.7696" y2="15.2304" gradientUnits="userSpaceOnUse">
<stop stop-color="#FFD521"/>
<stop offset="0.0551048" stop-color="#FFD020"/>
<stop offset="0.1241" stop-color="#FEC01E"/>
<stop offset="0.2004" stop-color="#FCA71B"/>
<stop offset="0.2821" stop-color="#FA8316"/>
<stop offset="0.3681" stop-color="#F85510"/>
<stop offset="0.4563" stop-color="#F51E09"/>
<stop offset="0.5" stop-color="#F30005"/>
<stop offset="0.5035" stop-color="#F20007"/>
<stop offset="0.5966" stop-color="#E1003B"/>
<stop offset="0.6879" stop-color="#D30067"/>
<stop offset="0.7757" stop-color="#C70088"/>
<stop offset="0.8589" stop-color="#BF00A0"/>
<stop offset="0.9357" stop-color="#BB00AF"/>
<stop offset="1" stop-color="#B900B4"/>
</linearGradient>
</defs>
</svg>
