<svg width="103" height="104" viewBox="0 0 103 104" fill="none" xmlns="http://www.w3.org/2000/svg">
<path d="M0 52C0 9.178 9.08975 0 51.5 0C93.9102 0 103 9.178 103 52C103 94.822 93.9102 104 51.5 104C9.08975 104 0 94.822 0 52Z" fill="#007BB5"/>
<path d="M39 40.5H29V75.5H39V40.5Z" fill="white"/>
<path d="M62.7475 40.5C55.77 40.5 54.57 43.045 54 45.5V40.5H44V75.5H54V55.5C54 52.2575 55.7575 50.5 59 50.5C62.165 50.5 64 52.22 64 55.5V75.5H74V58C74 48 72.6975 40.5 62.7475 40.5Z" fill="white"/>
<path d="M34 38C36.7614 38 39 35.7614 39 33C39 30.2386 36.7614 28 34 28C31.2386 28 29 30.2386 29 33C29 35.7614 31.2386 38 34 38Z" fill="white"/>
</svg>
