<svg width="104" height="104" viewBox="0 0 104 104" fill="none" xmlns="http://www.w3.org/2000/svg">
<path d="M0 52C0 9.178 9.178 0 52 0C94.822 0 104 9.178 104 52C104 94.822 94.822 104 52 104C9.178 104 0 94.822 0 52Z" fill="#0072C6"/>
<path d="M56.8105 26L27 31.7684V70.9516L56.8105 77.2V26ZM58.6926 36.8547V46.8674L62.1916 49.0737C62.2839 49.1006 62.4824 49.1025 62.5747 49.0737L77.64 38.9179C77.64 37.716 76.5211 36.8547 75.8884 36.8547H58.6926ZM42.2421 42.6442C44.2093 42.6442 45.7992 43.4454 47.0126 45.0568C48.228 46.6683 48.8358 48.7951 48.8358 51.4316C48.8377 54.1411 48.209 56.3255 46.9495 57.9832C45.6899 59.6408 44.0458 60.4716 42.0189 60.4716C40.044 60.4716 38.4379 59.6689 37.1937 58.0632C35.9514 56.4555 35.3242 54.3617 35.3242 51.7811C35.3242 49.0562 35.9597 46.8532 37.2232 45.1705C38.4866 43.4879 40.1595 42.6442 42.2421 42.6442ZM77.6442 42.9642C77.6442 42.9642 62.3417 53.135 62.8821 52.8042C62.8821 52.8042 62.3384 53.135 61.8884 52.8042L58.6926 50.6105V64.2189H74.9158C76.3581 64.2189 77.6442 63.3764 77.6442 61.3726V42.9642ZM42.1537 45.9916C41.0653 45.9916 40.2004 46.5031 39.56 47.5242C38.9196 48.5453 38.5958 49.8963 38.5958 51.5789C38.5958 53.2866 38.9196 54.6372 39.56 55.6295C40.2004 56.6237 41.0395 57.1158 42.0779 57.1158C43.149 57.1158 43.9984 56.6327 44.6253 55.6674C45.2522 54.702 45.5684 53.3597 45.5684 51.6463C45.5684 49.8598 45.2643 48.4721 44.6547 47.4779C44.0451 46.4856 43.2113 45.9916 42.1537 45.9916Z" fill="white"/>
</svg>
