<svg width="103" height="104" viewBox="0 0 103 104" fill="none" xmlns="http://www.w3.org/2000/svg">
<path d="M0 52C0 9.178 9.08975 0 51.5 0C93.9102 0 103 9.178 103 52C103 94.822 93.9102 104 51.5 104C9.08975 104 0 94.822 0 52Z" fill="#25D366"/>
<path fill-rule="evenodd" clip-rule="evenodd" d="M70.104 32.712C65.144 27.744 58.536 25.008 51.504 25C37.016 25 25.216 36.792 25.216 51.288C25.216 55.92 26.424 60.448 28.728 64.432L25 78.056L38.936 74.4C42.776 76.496 47.096 77.6 51.496 77.6H51.504C65.992 77.6 77.784 65.808 77.792 51.312C77.8 44.288 75.072 37.68 70.104 32.712ZM51.512 73.16H51.504C47.584 73.16 43.736 72.104 40.384 70.112L39.584 69.64L31.312 71.808L33.52 63.744L33 62.92C30.816 59.44 29.656 55.424 29.656 51.288C29.664 39.24 39.464 29.44 51.52 29.44C57.36 29.44 62.84 31.72 66.968 35.848C71.096 39.976 73.368 45.472 73.36 51.304C73.36 63.36 63.552 73.16 51.512 73.16ZM63.496 56.792C62.84 56.464 59.608 54.872 59.008 54.656C58.408 54.44 57.968 54.328 57.528 54.984C57.088 55.64 55.832 57.12 55.448 57.56C55.064 58 54.68 58.056 54.024 57.728C53.368 57.4 51.248 56.704 48.744 54.464C46.792 52.72 45.472 50.568 45.088 49.912C44.704 49.256 45.048 48.896 45.376 48.568C45.672 48.272 46.032 47.8 46.36 47.416C46.688 47.032 46.8 46.76 47.016 46.32C47.232 45.88 47.128 45.496 46.96 45.168C46.792 44.84 45.48 41.608 44.936 40.288C44.4 39.008 43.864 39.184 43.456 39.16C43.072 39.144 42.632 39.136 42.2 39.136C41.76 39.136 41.048 39.304 40.448 39.96C39.848 40.616 38.152 42.208 38.152 45.44C38.152 48.672 40.504 51.8 40.832 52.232C41.16 52.672 45.464 59.304 52.056 62.152C53.624 62.832 54.848 63.232 55.8 63.536C57.376 64.04 58.808 63.968 59.936 63.8C61.2 63.608 63.824 62.208 64.368 60.68C64.912 59.144 64.912 57.832 64.752 57.56C64.592 57.288 64.152 57.128 63.496 56.792Z" fill="white"/>
</svg>
